<mxfile host="app.diagrams.net" modified="2024-02-04T16:09:17.990Z" agent="Mozilla/5.0 (Macintosh; Intel Mac OS X 10_15_7) AppleWebKit/605.1.15 (KHTML, like Gecko) Version/16.6 Safari/605.1.15" version="23.1.1" etag="DrWKQP8U-w_1M5d4LEJI" type="github">
  <diagram name="Seite-1" id="xpebzq6s0oAS3QRB55km">
    <mxGraphModel>
      <root>
        <mxCell id="0" />
        <mxCell id="1" parent="0" />
      </root>
    </mxGraphModel>
  </diagram>
</mxfile>
